<?xml version="1.0" encoding="UTF-8" standalone="no"?>
<svg
   xmlns:dc="http://purl.org/dc/elements/1.1/"
   xmlns:cc="http://creativecommons.org/ns#"
   xmlns:rdf="http://www.w3.org/1999/02/22-rdf-syntax-ns#"
   xmlns:svg="http://www.w3.org/2000/svg"
   xmlns="http://www.w3.org/2000/svg"
   height="140"
   width="805"
   xml:space="preserve"
   id="svg2"
   version="1.1">
  <metadata id="metadata8">
    <rdf:RDF>
      <cc:Work rdf:about=""><dc:format>image/svg+xml</dc:format><dc:type rdf:resource="http://purl.org/dc/dcmitype/StillImage" /></cc:Work>
    </rdf:RDF>
  </metadata>
  <defs id="defs6">
    <clipPath id="clipPath18" clipPathUnits="userSpaceOnUse">
      <path id="path16" d="M 0,400 H 1610 V 0 H 0 Z" />
    </clipPath>
  </defs>
  <g transform="matrix(1.3333333,0,0,-1.3333333,0,225) scale(0.5)" id="g10">
    <g id="g12">
      <g clip-path="url(#clipPath18)" id="g14">        
        <g transform="translate(161,325)" id="g128">
          <path id="path130" style="fill:#52c4a6;fill-opacity:1;fill-rule:nonzero;stroke:none"
            d="m 0,0 c -33.553,0 -33.553,-50.33 -67.106,-50.33 h -39.962 c -6.354,0 -12.163,-3.59 -15.005,-9.274 l -12.14,-24.279 h 67.107 c 33.553,0 33.553,50.33 67.106,50.33 H 33.553 L 44.26,-12.14 C 47.048,-6.562 42.993,0 36.757,0 Z" />
        </g>
        <g transform="translate(171,275)" id="g136">
          <path id="path138" style="fill:#449bdb;fill-opacity:1;fill-rule:nonzero;stroke:none"
            d="m 0,0 c -33.553,0 -33.553,-50.33 -67.106,-50.33 h -83.884 l -16.776,-33.553 h 100.66 c 33.553,0 33.553,50.33 67.106,50.33 H 83.883 L 100.66,0 Z" />
        </g>
        <g transform="translate(182,224)" id="g132">
          <path id="path134" style="fill:#2352a5;fill-opacity:1;fill-rule:nonzero;stroke:none"
            d="m 0,0 c -33.553,0 -33.553,-50.33 -67.106,-50.33 h -33.554 l -10.706,-21.414 c -2.789,-5.577 1.266,-12.139 7.502,-12.139 h 36.758 c 33.553,0 33.553,50.33 67.106,50.33 h 39.961 c 6.355,0 12.164,3.59 15.006,9.274 L 67.106,0 Z" />
        </g>
        <g transform="translate(286,160)" id="g140">
          <path id="path142" style="fill:#171717;fill-opacity:1;fill-rule:nonzero;stroke:none"
            d="M 0,0 C 3.873,11.178 11.619,19.628 20.334,24.259 29.516,14.451 44.546,6.813 64.441,6.813 c 23.447,0 35.518,9.821 37.95,23.713 2.006,11.458 -1.971,19.908 -33.016,27.812 -26.935,6.534 -50.559,17.991 -44.767,52.603 5.296,30.26 33.182,50.979 70.255,50.979 28.889,0 45.619,-8.729 55.271,-17.445 -2.481,-9.541 -10.392,-20.453 -19.374,-25.084 -9.528,7.904 -22.324,14.172 -41.952,14.172 -18.815,0 -31.568,-8.996 -33.571,-20.439 C 53.234,101.679 57.592,95.412 86.283,88.04 118.883,79.589 138.854,65.963 133.491,33.8 127.568,-1.637 98.953,-21.811 59.152,-21.811 26.176,-21.811 8.649,-9.808 0,0" />
        </g>
        <g transform="translate(483,163)" id="g144">
          <path id="path146" style="fill:#171717;fill-opacity:1;fill-rule:nonzero;stroke:none"
            d="m 0,0 c 9.808,0 19.09,1.637 27.472,4.365 l 5.247,29.981 H 0.556 c -15.263,0 -23.433,-4.631 -25.436,-16.075 C -27.073,5.735 -17.445,0 0,0 M 67.916,59.43 55.557,-11.178 c -16.83,-7.359 -39.314,-12.801 -61.936,-12.801 -35.717,0 -54.815,13.892 -49.997,41.425 4.342,24.804 27.495,38.71 58.8,38.444 H 36.49 l 0.952,5.443 c 2.768,15.808 -5.791,24.538 -26.51,24.538 -15.53,0 -29.77,-6.547 -38.396,-12.269 -6.329,4.364 -10.218,11.723 -10.595,20.44 9.242,7.638 30.827,18.815 55.897,18.815 32.988,0 57.044,-13.626 50.078,-53.427" />
        </g>
        <g transform="translate(557,143)" id="g148">
          <path id="path150" style="fill:#171717;fill-opacity:1;fill-rule:nonzero;stroke:none"
            d="m 0,0 31.3,178.821 c 5.101,1.091 10.324,1.357 15.501,1.357 5.176,0 10.585,-0.266 15.571,-1.357 L 31.072,0 C 25.971,-1.091 20.482,-1.357 15.306,-1.357 10.396,-1.357 5.266,-1.091 0,0" />
        </g>
        <g transform="translate(752,275)" id="g152">
          <path id="path154" style="fill:#171717;fill-opacity:1;fill-rule:nonzero;stroke:none"
            d="m 0,0 -20.755,-118.58 c -14.191,-6.267 -35.373,-13.626 -63.997,-13.626 -40.334,0 -54.843,19.894 -49.355,51.246 L -119.937,0 c 5.634,1.091 10.857,1.357 16.046,1.357 4.898,0 10.307,-0.266 15.027,-1.357 l -12.597,-71.965 c -3.675,-20.998 -0.282,-32.708 25.627,-32.708 10.073,0 18.81,1.636 27.285,4.897 L -31.085,0 c 5.381,1.091 10.87,1.357 15.78,1.357 C -10.128,1.357 -4.999,1.091 0,0" />
        </g>
        <g transform="translate(889,211)" id="g156">
          <path id="path158" style="fill:#171717;fill-opacity:1;fill-rule:nonzero;stroke:none"
            d="m 0,0 62.395,18.537 c 0.501,5.988 -2.473,20.16 -22.368,20.16 C 18.217,38.697 4.817,22.888 0,0 m 79.73,-53.708 c -11.286,-8.45 -31.915,-18.803 -56.439,-18.803 -38.165,0 -63.042,24.526 -55.36,68.412 7.015,40.081 40.054,68.425 77.128,68.425 37.885,0 52.366,-27.811 48.114,-58.338 L -1.322,-21.544 c 2.362,-16.075 12.742,-25.351 31.545,-25.351 17.445,0 31.835,8.996 40.148,14.452 6.22,-4.91 9.201,-12.815 9.359,-21.265" />
        </g>
        <g transform="translate(1203,225)" id="g160">
          <path id="path162" style="fill:#171717;fill-opacity:1;fill-rule:nonzero;stroke:none"
            d="m 0,0 -14.361,-82.052 c -5.088,-1.091 -10.59,-1.357 -15.501,-1.357 -5.443,0 -10.585,0.266 -15.291,1.357 l 12.737,72.777 c 3.245,18.537 -2.601,31.897 -23.586,31.897 -12.535,0 -22.22,-5.456 -29.394,-10.633 C -85.252,8.17 -85.421,4.085 -86.137,0 l -14.361,-82.052 c -5.095,-1.091 -10.597,-1.357 -15.508,-1.357 -5.455,0 -10.585,0.266 -15.57,1.357 l 12.737,72.777 c 3.245,18.537 -2.321,31.897 -23.307,31.897 -10.086,0 -20.151,-2.994 -27.682,-7.093 l -17.079,-97.581 c -5.102,-1.091 -10.605,-1.357 -15.78,-1.357 -4.911,0 -10.041,0.266 -15.027,1.357 l 19.705,112.578 c 11.928,8.996 37.378,20.44 64.364,20.44 18.538,0 31.707,-5.722 39.628,-14.984 12.063,8.171 29.071,14.984 46.516,14.984 C -10.161,50.966 4.915,28.078 0,0" />
        </g>
        <g transform="translate(847,153)" id="g164">
          <path id="path166" style="fill:#171717;fill-opacity:1;fill-rule:nonzero;stroke:none"
            d="m 0,0 c -9.097,-6.813 -23.419,-13.906 -41.144,-13.906 -27.798,0 -46.057,12.535 -40.617,43.621 l 10.926,62.423 h -22.076 c -0.097,4.086 0.339,8.171 1.149,12.801 0.718,4.099 1.712,8.185 3.24,12.269 h 22.076 l 6.011,34.346 c 5.381,1.092 10.606,1.371 15.783,1.371 5.176,0 10.038,-0.279 14.756,-1.371 l -6.01,-34.346 h 48.238 c 0.376,-4.084 -0.06,-8.17 -0.777,-12.269 C 10.793,100.588 9.796,96.49 7.943,92.138 h -48.238 l -9.686,-55.344 c -3.34,-19.083 4.797,-23.98 17.599,-23.98 9.276,0 18.303,4.897 23.069,8.717 C -3.542,17.166 0.388,8.45 0,0" />
        </g>
      </g>
    </g>
  </g>
</svg>